<svg width="1440" height="1180" viewBox="0 0 1440 1180" fill="none" xmlns="http://www.w3.org/2000/svg">
  <rect width="1440" height="1180" fill="#F4F1EA"/>
  <rect x="32" y="24" width="1376" height="1132" rx="24" fill="#FFFDFC" stroke="#D9D1C6"/>
  <text x="72" y="76" fill="#1C1B19" font-family="Arial, Helvetica, sans-serif" font-size="32" font-weight="700">Time Off Report</text>
  <text x="72" y="104" fill="#6A645C" font-family="Arial, Helvetica, sans-serif" font-size="16">Department-scoped workforce leave analysis with overview-to-detail layout</text>

  <rect x="72" y="132" width="1296" height="88" rx="18" fill="#F7F4EE" stroke="#DED6CA"/>
  <text x="96" y="162" fill="#544F48" font-family="Arial, Helvetica, sans-serif" font-size="14" font-weight="700">FILTER BAR</text>

  <rect x="96" y="174" width="184" height="30" rx="15" fill="#E7EEF9"/>
  <text x="112" y="194" fill="#234774" font-family="Arial, Helvetica, sans-serif" font-size="14">Department: Engineering</text>
  <rect x="292" y="174" width="192" height="30" rx="15" fill="#EAE6F8"/>
  <text x="308" y="194" fill="#4A3E78" font-family="Arial, Helvetica, sans-serif" font-size="14">Date: Jan 1 - Mar 31</text>
  <rect x="496" y="174" width="132" height="30" rx="15" fill="#E7F3EC"/>
  <text x="512" y="194" fill="#24613B" font-family="Arial, Helvetica, sans-serif" font-size="14">Status: All</text>
  <rect x="640" y="174" width="164" height="30" rx="15" fill="#FFF1D7"/>
  <text x="656" y="194" fill="#7A5417" font-family="Arial, Helvetica, sans-serif" font-size="14">Leave type: All</text>
  <rect x="816" y="174" width="174" height="30" rx="15" fill="#EFEFEF"/>
  <text x="832" y="194" fill="#4F4F4F" font-family="Arial, Helvetica, sans-serif" font-size="14">Employee search</text>
  <rect x="1168" y="170" width="92" height="36" rx="18" fill="#243B53"/>
  <text x="1192" y="193" fill="#FFFDFC" font-family="Arial, Helvetica, sans-serif" font-size="14" font-weight="700">Apply</text>
  <rect x="1270" y="170" width="74" height="36" rx="18" fill="#FFFDFC" stroke="#C9C0B3"/>
  <text x="1288" y="193" fill="#5D564D" font-family="Arial, Helvetica, sans-serif" font-size="14">Reset</text>

  <rect x="72" y="252" width="306" height="122" rx="18" fill="#FFFDFC" stroke="#DED6CA"/>
  <text x="96" y="286" fill="#6A645C" font-family="Arial, Helvetica, sans-serif" font-size="13" font-weight="700">EMPLOYEES ON LEAVE</text>
  <text x="96" y="338" fill="#1C1B19" font-family="Arial, Helvetica, sans-serif" font-size="44" font-weight="700">28</text>
  <text x="96" y="360" fill="#6A645C" font-family="Arial, Helvetica, sans-serif" font-size="14">+6 vs prior period</text>

  <rect x="392" y="252" width="306" height="122" rx="18" fill="#FFFDFC" stroke="#DED6CA"/>
  <text x="416" y="286" fill="#6A645C" font-family="Arial, Helvetica, sans-serif" font-size="13" font-weight="700">PENDING REQUESTS</text>
  <text x="416" y="338" fill="#1C1B19" font-family="Arial, Helvetica, sans-serif" font-size="44" font-weight="700">11</text>
  <text x="416" y="360" fill="#6A645C" font-family="Arial, Helvetica, sans-serif" font-size="14">3 need manager action today</text>

  <rect x="712" y="252" width="306" height="122" rx="18" fill="#FFFDFC" stroke="#DED6CA"/>
  <text x="736" y="286" fill="#6A645C" font-family="Arial, Helvetica, sans-serif" font-size="13" font-weight="700">APPROVED DAYS</text>
  <text x="736" y="338" fill="#1C1B19" font-family="Arial, Helvetica, sans-serif" font-size="44" font-weight="700">186</text>
  <text x="736" y="360" fill="#6A645C" font-family="Arial, Helvetica, sans-serif" font-size="14">Within selected date range</text>

  <rect x="1032" y="252" width="336" height="122" rx="18" fill="#FFFDFC" stroke="#DED6CA"/>
  <text x="1056" y="286" fill="#6A645C" font-family="Arial, Helvetica, sans-serif" font-size="13" font-weight="700">LOW BALANCE RISK</text>
  <text x="1056" y="338" fill="#1C1B19" font-family="Arial, Helvetica, sans-serif" font-size="44" font-weight="700">7</text>
  <text x="1056" y="360" fill="#6A645C" font-family="Arial, Helvetica, sans-serif" font-size="14">Employees below threshold after approved leave</text>

  <rect x="72" y="398" width="748" height="274" rx="18" fill="#FFFDFC" stroke="#DED6CA"/>
  <text x="96" y="432" fill="#544F48" font-family="Arial, Helvetica, sans-serif" font-size="14" font-weight="700">TIME-OFF TREND</text>
  <path d="M108 618C188 596 222 522 306 534C386 546 437 440 518 468C591 494 667 422 784 454" stroke="#2D5B8A" stroke-width="4" stroke-linecap="round"/>
  <path d="M108 630H784" stroke="#D8D0C4" stroke-width="2"/>
  <path d="M108 578H784" stroke="#ECE7DD" stroke-width="2"/>
  <path d="M108 526H784" stroke="#ECE7DD" stroke-width="2"/>
  <path d="M108 474H784" stroke="#ECE7DD" stroke-width="2"/>
  <path d="M108 422H784" stroke="#ECE7DD" stroke-width="2"/>
  <text x="108" y="650" fill="#7A736A" font-family="Arial, Helvetica, sans-serif" font-size="12">Jan</text>
  <text x="274" y="650" fill="#7A736A" font-family="Arial, Helvetica, sans-serif" font-size="12">Feb</text>
  <text x="440" y="650" fill="#7A736A" font-family="Arial, Helvetica, sans-serif" font-size="12">Mar</text>
  <text x="606" y="650" fill="#7A736A" font-family="Arial, Helvetica, sans-serif" font-size="12">Apr</text>
  <text x="748" y="650" fill="#7A736A" font-family="Arial, Helvetica, sans-serif" font-size="12">May</text>

  <rect x="844" y="398" width="524" height="274" rx="18" fill="#FFFDFC" stroke="#DED6CA"/>
  <text x="868" y="432" fill="#544F48" font-family="Arial, Helvetica, sans-serif" font-size="14" font-weight="700">LEAVE TYPE BREAKDOWN</text>
  <rect x="892" y="476" width="84" height="140" rx="10" fill="#2D5B8A"/>
  <rect x="1000" y="442" width="84" height="174" rx="10" fill="#5E8FBF"/>
  <rect x="1108" y="516" width="84" height="100" rx="10" fill="#92B3D4"/>
  <rect x="1216" y="550" width="84" height="66" rx="10" fill="#C7D7E7"/>
  <text x="900" y="636" fill="#7A736A" font-family="Arial, Helvetica, sans-serif" font-size="12">Vacation</text>
  <text x="1015" y="636" fill="#7A736A" font-family="Arial, Helvetica, sans-serif" font-size="12">Sick</text>
  <text x="1115" y="636" fill="#7A736A" font-family="Arial, Helvetica, sans-serif" font-size="12">Personal</text>
  <text x="1232" y="636" fill="#7A736A" font-family="Arial, Helvetica, sans-serif" font-size="12">Other</text>

  <rect x="72" y="696" width="1296" height="400" rx="18" fill="#FFFDFC" stroke="#DED6CA"/>
  <text x="96" y="730" fill="#544F48" font-family="Arial, Helvetica, sans-serif" font-size="14" font-weight="700">EMPLOYEE DETAIL</text>
  <text x="96" y="754" fill="#7A736A" font-family="Arial, Helvetica, sans-serif" font-size="13">184 results | Last refresh: 8:30 AM</text>

  <rect x="1092" y="718" width="112" height="32" rx="16" fill="#EFEFEF"/>
  <text x="1123" y="738" fill="#4F4F4F" font-family="Arial, Helvetica, sans-serif" font-size="13">Search</text>
  <rect x="1218" y="718" width="64" height="32" rx="16" fill="#EFEFEF"/>
  <text x="1233" y="738" fill="#4F4F4F" font-family="Arial, Helvetica, sans-serif" font-size="13">Cols</text>
  <rect x="1292" y="718" width="52" height="32" rx="16" fill="#243B53"/>
  <text x="1302" y="738" fill="#FFFDFC" font-family="Arial, Helvetica, sans-serif" font-size="13">Export</text>

  <rect x="96" y="778" width="1248" height="44" rx="10" fill="#F7F4EE"/>
  <text x="116" y="806" fill="#544F48" font-family="Arial, Helvetica, sans-serif" font-size="13" font-weight="700">Employee</text>
  <text x="316" y="806" fill="#544F48" font-family="Arial, Helvetica, sans-serif" font-size="13" font-weight="700">Team</text>
  <text x="466" y="806" fill="#544F48" font-family="Arial, Helvetica, sans-serif" font-size="13" font-weight="700">Type</text>
  <text x="590" y="806" fill="#544F48" font-family="Arial, Helvetica, sans-serif" font-size="13" font-weight="700">Start</text>
  <text x="700" y="806" fill="#544F48" font-family="Arial, Helvetica, sans-serif" font-size="13" font-weight="700">End</text>
  <text x="810" y="806" fill="#544F48" font-family="Arial, Helvetica, sans-serif" font-size="13" font-weight="700">Days</text>
  <text x="900" y="806" fill="#544F48" font-family="Arial, Helvetica, sans-serif" font-size="13" font-weight="700">Approved</text>
  <text x="1046" y="806" fill="#544F48" font-family="Arial, Helvetica, sans-serif" font-size="13" font-weight="700">Status</text>
  <text x="1170" y="806" fill="#544F48" font-family="Arial, Helvetica, sans-serif" font-size="13" font-weight="700">Balance After</text>

  <rect x="96" y="836" width="1248" height="48" fill="#FFFDFC"/>
  <rect x="96" y="884" width="1248" height="48" fill="#FBF9F5"/>
  <rect x="96" y="932" width="1248" height="48" fill="#FFFDFC"/>
  <rect x="96" y="980" width="1248" height="48" fill="#FBF9F5"/>

  <text x="116" y="865" fill="#2F2D29" font-family="Arial, Helvetica, sans-serif" font-size="13">Alicia Carter</text>
  <text x="316" y="865" fill="#2F2D29" font-family="Arial, Helvetica, sans-serif" font-size="13">Platform</text>
  <text x="466" y="865" fill="#2F2D29" font-family="Arial, Helvetica, sans-serif" font-size="13">Vacation</text>
  <text x="590" y="865" fill="#2F2D29" font-family="Arial, Helvetica, sans-serif" font-size="13">03/12</text>
  <text x="700" y="865" fill="#2F2D29" font-family="Arial, Helvetica, sans-serif" font-size="13">03/18</text>
  <text x="810" y="865" fill="#2F2D29" font-family="Arial, Helvetica, sans-serif" font-size="13">5</text>
  <text x="900" y="865" fill="#2F2D29" font-family="Arial, Helvetica, sans-serif" font-size="13">5</text>
  <rect x="1038" y="848" width="88" height="22" rx="11" fill="#E7F3EC"/>
  <text x="1060" y="863" fill="#24613B" font-family="Arial, Helvetica, sans-serif" font-size="12">Approved</text>
  <text x="1188" y="865" fill="#2F2D29" font-family="Arial, Helvetica, sans-serif" font-size="13">9 days</text>

  <text x="116" y="913" fill="#2F2D29" font-family="Arial, Helvetica, sans-serif" font-size="13">Marcus Lee</text>
  <text x="316" y="913" fill="#2F2D29" font-family="Arial, Helvetica, sans-serif" font-size="13">Security</text>
  <text x="466" y="913" fill="#2F2D29" font-family="Arial, Helvetica, sans-serif" font-size="13">Sick</text>
  <text x="590" y="913" fill="#2F2D29" font-family="Arial, Helvetica, sans-serif" font-size="13">03/20</text>
  <text x="700" y="913" fill="#2F2D29" font-family="Arial, Helvetica, sans-serif" font-size="13">03/21</text>
  <text x="810" y="913" fill="#2F2D29" font-family="Arial, Helvetica, sans-serif" font-size="13">2</text>
  <text x="900" y="913" fill="#2F2D29" font-family="Arial, Helvetica, sans-serif" font-size="13">0</text>
  <rect x="1038" y="896" width="80" height="22" rx="11" fill="#FFF1D7"/>
  <text x="1062" y="911" fill="#7A5417" font-family="Arial, Helvetica, sans-serif" font-size="12">Pending</text>
  <text x="1180" y="913" fill="#2F2D29" font-family="Arial, Helvetica, sans-serif" font-size="13">14 days</text>

  <text x="116" y="961" fill="#2F2D29" font-family="Arial, Helvetica, sans-serif" font-size="13">Nina Patel</text>
  <text x="316" y="961" fill="#2F2D29" font-family="Arial, Helvetica, sans-serif" font-size="13">Product</text>
  <text x="466" y="961" fill="#2F2D29" font-family="Arial, Helvetica, sans-serif" font-size="13">Personal</text>
  <text x="590" y="961" fill="#2F2D29" font-family="Arial, Helvetica, sans-serif" font-size="13">03/25</text>
  <text x="700" y="961" fill="#2F2D29" font-family="Arial, Helvetica, sans-serif" font-size="13">03/25</text>
  <text x="810" y="961" fill="#2F2D29" font-family="Arial, Helvetica, sans-serif" font-size="13">1</text>
  <text x="900" y="961" fill="#2F2D29" font-family="Arial, Helvetica, sans-serif" font-size="13">1</text>
  <rect x="1038" y="944" width="88" height="22" rx="11" fill="#E7F3EC"/>
  <text x="1060" y="959" fill="#24613B" font-family="Arial, Helvetica, sans-serif" font-size="12">Approved</text>
  <text x="1184" y="961" fill="#2F2D29" font-family="Arial, Helvetica, sans-serif" font-size="13">4 days</text>

  <text x="116" y="1009" fill="#2F2D29" font-family="Arial, Helvetica, sans-serif" font-size="13">Diego Ramos</text>
  <text x="316" y="1009" fill="#2F2D29" font-family="Arial, Helvetica, sans-serif" font-size="13">Platform</text>
  <text x="466" y="1009" fill="#2F2D29" font-family="Arial, Helvetica, sans-serif" font-size="13">Vacation</text>
  <text x="590" y="1009" fill="#2F2D29" font-family="Arial, Helvetica, sans-serif" font-size="13">04/02</text>
  <text x="700" y="1009" fill="#2F2D29" font-family="Arial, Helvetica, sans-serif" font-size="13">04/05</text>
  <text x="810" y="1009" fill="#2F2D29" font-family="Arial, Helvetica, sans-serif" font-size="13">3</text>
  <text x="900" y="1009" fill="#2F2D29" font-family="Arial, Helvetica, sans-serif" font-size="13">3</text>
  <rect x="1038" y="992" width="88" height="22" rx="11" fill="#E7F3EC"/>
  <text x="1060" y="1007" fill="#24613B" font-family="Arial, Helvetica, sans-serif" font-size="12">Approved</text>
  <text x="1184" y="1009" fill="#2F2D29" font-family="Arial, Helvetica, sans-serif" font-size="13">6 days</text>

  <text x="1152" y="1070" fill="#7A736A" font-family="Arial, Helvetica, sans-serif" font-size="12">Rows 1-25 of 184</text>
  <rect x="1262" y="1050" width="34" height="28" rx="14" fill="#EFEFEF"/>
  <text x="1275" y="1068" fill="#4F4F4F" font-family="Arial, Helvetica, sans-serif" font-size="12">&lt;</text>
  <rect x="1304" y="1050" width="34" height="28" rx="14" fill="#243B53"/>
  <text x="1317" y="1068" fill="#FFFDFC" font-family="Arial, Helvetica, sans-serif" font-size="12">&gt;</text>
</svg>
